<svg width="588" height="628" viewBox="0 0 588 628" fill="none" xmlns="http://www.w3.org/2000/svg">
<path d="M147.327 606.139L0.417592 38.129L276.853 17.9431L554.971 -7.42622e-07L416.473 606.139L147.327 606.139Z" fill="url(#paint0_linear_2003_7)"/>
<path d="M108.076 605.018C108.076 600.683 111.591 597.168 115.926 597.168H489.367C493.702 597.168 497.217 600.683 497.217 605.018H108.076Z" fill="#0AB048"/>
<path d="M46.397 608.943C46.397 606.775 48.1543 605.018 50.322 605.018H497.217C497.217 609.354 493.702 612.868 489.367 612.868H50.322C48.1543 612.868 46.397 611.111 46.397 608.943Z" fill="url(#paint1_linear_2003_7)"/>
<defs>
<linearGradient id="paint0_linear_2003_7" x1="271.246" y1="30.2789" x2="314.982" y2="608.382" gradientUnits="userSpaceOnUse">
<stop stop-color="#E9FFF3"/>
<stop offset="1" stop-color="#A4FFD9"/>
</linearGradient>
<linearGradient id="paint1_linear_2003_7" x1="46.397" y1="608.943" x2="497.217" y2="608.943" gradientUnits="userSpaceOnUse">
<stop stop-color="#EFFFF8"/>
<stop offset="1" stop-color="#0AB048"/>
</linearGradient>
</defs>
</svg>
